<?xml version="1.0" encoding="UTF-8"?>
<svg id="Layer_1" data-name="Layer 1" xmlns="http://www.w3.org/2000/svg" viewBox="0 0 95.22 128.03">
  <defs>
    <style>
      .cls-1 {
        fill: none;
        stroke: #000;
        stroke-miterlimit: 10;
        stroke-width: 2px;
      }
    </style>
  </defs>
  <g>
    <path class="cls-1" d="M32.39,102.3l-.7,1.01s0,.03,0,.04v16.42H1.01V25.87h48.8v62.05c-3.39.08-6.09.23-7.3.37l-10.47,14.1"/>
    <line class="cls-1" x1="61.56" y1="98.65" x2="49.81" y2="100.12"/>
    <path class="cls-1" d="M49.81,87.92c3.54-.09,7.82-.1,11.95.08"/>
    <line class="cls-1" x1="62.95" y1="24.73" x2="61.76" y2="88"/>
    <polyline class="cls-1" points="49.81 25.87 49.81 26.2 49.81 87.92"/>
    <polyline class="cls-1" points="49.81 26.2 56.38 8.07 62.95 24.73"/>
    <path class="cls-1" d="M48.5,25.86H2.06c-.77,0-1.28-.88-.97-1.67L7.38,8.15c.17-.44.56-.71.98-.71l45.43.29c.74,0,1.25.83.99,1.61l-5.28,15.76c-.16.46-.55.77-1,.77Z"/>
    <rect class="cls-1" x="8.18" y="1" width="48.2" height="6.43"/>
    <line class="cls-1" x1="62.82" y1="24.27" x2="62.93" y2="25.13"/>
  </g>
  <g>
    <path class="cls-1" d="M32.39,102.3l-.7,1.01s0,.03,0,.04v-.48c0-.2.14-.37.35-.48h.01c.08-.05.18-.08.29-.09h.06Z"/>
    <line class="cls-1" x1="61.56" y1="98.65" x2="49.81" y2="100.12"/>
    <path class="cls-1" d="M31.68,119.77v-16.42s0-.03.01-.04l.7-1.01,9.71-1.22,7.71-.96"/>
    <path class="cls-1" d="M61.56,98.65l31.76-3.97c.47-.06.9.21.9.57v19.78c0,.26-.24.48-.57.55l-61,11.43c-.49.09-.97-.18-.97-.55v-.72"/>
    <line class="cls-1" x1="31.68" y1="125.74" x2="31.68" y2="119.77"/>
    <path class="cls-1" d="M32.33,102.3h.06l9.71-1.22,7.71-.96"/>
    <path class="cls-1" d="M49.81,87.92c-3.39.08-6.09.23-7.3.37"/>
    <path class="cls-1" d="M61.76,88c1.89.08,3.75.2,5.48.36,12.98,1.22,25.65,6.2,26.5,6.32"/>
    <path class="cls-1" d="M42.51,88.29c-.22.02-.38.05-.5.07"/>
    <line class="cls-1" x1="42.83" y1="87.86" x2="42.51" y2="88.29"/>
    <polyline class="cls-1" points="32.04 102.39 32.03 102.39 31.68 102.87"/>
  </g>
</svg>