<?xml version="1.0" encoding="UTF-8"?>
<svg id="Layer_1" data-name="Layer 1" xmlns="http://www.w3.org/2000/svg" viewBox="0 0 121.36 122.65">
  <defs>
    <style>
      .cls-1 {
        fill: none;
        stroke: #000;
        stroke-linecap: round;
        stroke-linejoin: round;
        stroke-width: 2px;
      }
    </style>
  </defs>
  <path class="cls-1" d="M47.93,1.21C18.24,4.33,20.16,30.41,9.73,50.55c-6.42,12.38-11.99,18.76-6.47,33.69,9.1,24.6,26.17,19.39,44.94,26.16,16.6,5.98,26.9,17.56,45.89,6.95,23.26-13,12.76-30.61,20.05-50.88,3.83-10.65,9.19-16.62,4.19-28.65-6.88-16.57-17.39-14.05-30.35-19.68C73.12,11.67,66.45-.75,47.93,1.21Z"/>
  <circle class="cls-1" cx="56.58" cy="56.67" r="21.76"/>
  <path class="cls-1" d="M59.46,41.44c-4.22-1.11-11.33,2.06-13.33,5.11"/>
  <path class="cls-1" d="M43.46,50.33c-.59.67-.69,1.14-.89,2"/>
</svg>