<?xml version="1.0" encoding="UTF-8"?>
<svg id="Layer_1" data-name="Layer 1" xmlns="http://www.w3.org/2000/svg" viewBox="0 0 154.88 117.91">
  <defs>
    <style>
      .cls-1 {
        stroke-linecap: round;
      }

      .cls-1, .cls-2, .cls-3 {
        stroke: #000;
        stroke-miterlimit: 10;
        stroke-width: 2px;
      }

      .cls-1, .cls-3 {
        fill: none;
      }
    </style>
  </defs>
  <path class="cls-3" d="M84.61,21.33c-23.44,0-44.13,14.24-56.6,25.2-.96-2.38-2.32-4.68-4.23-6.59-8-8-22.63-6.34-22.63-6.34,0,0-1.66,14.63,6.34,22.63,2.17,2.17,4.84,3.63,7.56,4.6-2.73.97-5.39,2.43-7.56,4.6-8,8-6.34,22.63-6.34,22.63,0,0,14.63,1.66,22.63-6.34,2.68-2.68,4.28-6.12,5.21-9.49,12.55,10.83,32.79,24.34,55.62,24.34,38.1,0,68.98-37.62,68.98-37.62,0,0-30.88-37.62-68.98-37.62Z"/>
  <path class="cls-3" d="M84.89,21.34c-4-5.52-7.05-7.48-11.19-11.07-3.41-2.95-12.28-7.27-18.36-9.17-1.12-.34-2.27.24-2.16,1.4l2.33,25.71"/>
  <circle class="cls-2" cx="119.11" cy="49.32" r="4.55"/>
  <path class="cls-1" d="M98.2,33.44c-2.05,6.14-3.64,17.09-3.64,23.61s1.82,18.84,3.64,25.43"/>
  <path class="cls-1" d="M86.2,37.33c-3.33,7.26-3.81,36.15.06,43.26"/>
  <path class="cls-3" d="M84.89,96.58c-4,5.52-7.05,7.48-11.19,11.07-3.41,2.95-12.28,7.27-18.36,9.17-1.12.34-2.27-.24-2.16-1.4l2.33-25.71"/>
</svg>