<?xml version="1.0" encoding="UTF-8"?>
<svg id="Layer_1" data-name="Layer 1" xmlns="http://www.w3.org/2000/svg" viewBox="0 0 138.14 114.82">
  <defs>
    <style>
      .cls-1 {
        fill: none;
        stroke: #fff;
        stroke-linecap: round;
        stroke-linejoin: round;
        stroke-width: 3px;
      }
    </style>
  </defs>
  <g id="Generative_Object" data-name="Generative Object">
    <path class="cls-1" d="M132.64,57.75H9.97c-2.21,0-4-1.79-4-4h0c0-2.21,1.79-4,4-4h122.67c2.21,0,4,1.79,4,4h0c0,2.21-1.79,4-4,4Z"/>
    <path class="cls-1" d="M71.31,49.75H19.22c0-22.95,23.51-41.84,52.08-41.84s52.08,18.89,52.08,41.84h-52.08Z"/>
    <path class="cls-1" d="M66.53,6.28c0-2.64,2.14-4.78,4.78-4.78s4.78,2.14,4.78,4.78-2.14,1.3-4.78,1.3-4.78,1.34-4.78-1.3Z"/>
    <path class="cls-1" d="M54.29,77.64c8.19-.35,17.19.65,25.19-.35,3-1,5-6,2-9-1-1-3-2-4-2-15,0-30.91.24-46,1-6.61,3.16-12.24,7.68-14.92,12.98"/>
    <path class="cls-1" d="M33.47,98.77c5.47-3.02,11.47-5.02,17.47-5.02,15,1,30,1,45,1,11-1,21-7,29-15,3-4,1-9-3-11-8-3-13,5-19,7-12,4-24,1-35.73,1.96"/>
    <rect class="cls-1" x="-.04" y="87.38" width="36.1" height="17.82" rx="5.52" ry="5.52" transform="translate(76.51 17.71) rotate(47.26)"/>
  </g>
</svg>