<?xml version="1.0" encoding="UTF-8"?>
<svg id="Layer_1" data-name="Layer 1" xmlns="http://www.w3.org/2000/svg" viewBox="0 0 138.23 88.4">
  <defs>
    <style>
      .cls-1 {
        stroke-linecap: round;
      }

      .cls-1, .cls-2 {
        fill: none;
        stroke: #000;
        stroke-miterlimit: 10;
        stroke-width: 2px;
      }
    </style>
  </defs>
  <path class="cls-2" d="M20.8,6.17c29.27-11.66,86.42-2.27,110.09,14.8,11.74,8.46,6.13,47.48-8.28,53.24-10.01,4-15.61,1-27.86,1.68-19.42,1.07-35.93,11.57-68.04,11.51-30.7-.06-35.43-69.47-5.91-81.23Z"/>
  <path class="cls-1" d="M1.63,55.58c4.94,17,16.35,16.98,33.38,17.14,23.26.21,49.33-13.26,63.59-12.76"/>
  <path class="cls-1" d="M136.13,49.7c-3.25,5.88-8.01,9.3-14.51,9.8"/>
  <path class="cls-1" d="M106.86,59.75c2.5,0,1.42.17,3.75,0"/>
  <path class="cls-1" d="M45.07,10.43c-17.7-.02-29.27,3.75-33.27,22.51-4.42,20.73,4,26.77,23.77,28.02,13.8.87,43.28-8.33,57.54-9.51,30.11-2.48,30.77,1.5,33.77-11.76,4.39-19.37-37.52-29.27-57.75-29.27"/>
  <line class="cls-1" x1="52.04" y1="10.43" x2="57.3" y2="10.25"/>
  <path class="cls-1" d="M43.32,28.72c0,4.47-3.72,7-8.31,7s-8.31-1.28-8.31-7c0-3.53,3.72-7,8.31-7s8.31,2.22,8.31,7Z"/>
</svg>