<?xml version="1.0" encoding="UTF-8"?>
<svg id="Layer_1" data-name="Layer 1" xmlns="http://www.w3.org/2000/svg" viewBox="0 0 177.97 198.48">
  <defs>
    <style>
      .cls-1 {
        fill: none;
        stroke: #231f20;
        stroke-miterlimit: 10;
        stroke-width: 12px;
      }
    </style>
  </defs>
  <circle class="cls-1" cx="88.61" cy="46.49" r="40.49"/>
  <path class="cls-1" d="M140.92,93.47c-2.83-.77-7.08-1-10.53-1.04s-6.58,1.47-8.79,4.04c-8.33,9.67-20.66,15.8-34.42,15.8s-25.97-6.06-34.3-15.65c-2.29-2.63-5.58-4.17-9.07-4.07-4.5.14-10.32.59-12.62,1.98-3.54,2.13-12.26,9.43-18.39,26.4-3.52,9.75-7.76,34.25-6.6,45.63,1.48,14.54,11.6,25.91,25.91,25.91h113.66c14.31,0,22.42-13.84,25.44-27.7,2.38-10.94-1.34-29.18-3.77-38.66-4.24-16.5-21.33-31.23-26.52-32.65Z"/>
</svg>