<?xml version="1.0" encoding="UTF-8"?>
<svg id="Layer_1" data-name="Layer 1" xmlns="http://www.w3.org/2000/svg" viewBox="0 0 189.01 189.43">
  <defs>
    <style>
      .cls-1 {
        stroke-linecap: round;
      }

      .cls-1, .cls-2, .cls-3 {
        fill: none;
      }

      .cls-1, .cls-3 {
        stroke: #231f20;
        stroke-miterlimit: 10;
        stroke-width: 12px;
      }
    </style>
  </defs>
  <rect class="cls-2" x="109.68" y="34.44" width="59.19" height="44.96"/>
  <path class="cls-1" d="M171.53,84.39v56.79c0,6.21-4.55,11.24-10.15,11.24h-63.17l-45.33,30.66c-1.41.95-3.23-.17-3.23-2v-28.66H16.15c-5.61,0-10.15-5.04-10.15-11.24V42.98c0-6.21,4.54-11.23,10.15-11.23h82.57"/>
  <path class="cls-3" d="M170.01,62.23l-15.09-3.48c-.69-.16-1.41-.15-2.1.03l-14.98,3.93c-1.54.41-3.08-.68-3.22-2.27l-1.36-15.42c-.06-.71-.3-1.39-.68-1.99l-8.37-13.03c-.86-1.34-.31-3.14,1.16-3.77l14.25-6.06c.65-.28,1.23-.71,1.68-1.26l9.8-11.98c1.01-1.24,2.89-1.26,3.94-.06l10.16,11.68c.47.54,1.06.95,1.72,1.21l14.43,5.62c1.49.58,2.1,2.36,1.27,3.73l-7.97,13.28c-.37.61-.58,1.3-.62,2.01l-.89,15.46c-.09,1.59-1.6,2.72-3.15,2.36Z"/>
  <line class="cls-1" x1="44.26" y1="79.4" x2="116.73" y2="79.4"/>
  <line class="cls-1" x1="44.26" y1="110.53" x2="92.98" y2="110.53"/>
</svg>