<?xml version="1.0" encoding="UTF-8"?>
<svg id="Layer_1" data-name="Layer 1" xmlns="http://www.w3.org/2000/svg" viewBox="0 0 198.62 180.9">
  <defs>
    <style>
      .cls-1 {
        fill: none;
      }

      .cls-1, .cls-2, .cls-3 {
        stroke: #231f20;
        stroke-miterlimit: 10;
        stroke-width: 12px;
      }

      .cls-1, .cls-3 {
        stroke-linecap: round;
      }

      .cls-4, .cls-2, .cls-3 {
        fill: #6a68af;
      }
    </style>
  </defs>
  <rect class="cls-4" x="111.29" y="23.6" width="60.11" height="45.66"/>
  <path class="cls-3" d="M174.09,66.82v65.17c0,6.3-4.62,11.42-10.3,11.42h-64.15l-46.03,31.14c-1.43.97-3.28-.18-3.28-2.03v-29.1H16.3c-5.69,0-10.3-5.11-10.3-11.42V32.27c0-6.3,4.61-11.41,10.3-11.41h117.04"/>
  <path class="cls-2" d="M180.88,55.69l-12.94-2.98c-.69-.16-1.41-.15-2.1.03l-12.85,3.37c-1.54.41-3.08-.68-3.22-2.27l-1.16-13.23c-.06-.71-.3-1.39-.68-1.99l-7.18-11.18c-.86-1.34-.31-3.14,1.16-3.77l12.22-5.2c.65-.28,1.23-.71,1.68-1.26l8.41-10.28c1.01-1.24,2.89-1.26,3.94-.06l8.72,10.02c.47.54,1.06.95,1.72,1.21l12.38,4.82c1.49.58,2.1,2.36,1.27,3.73l-6.84,11.39c-.37.61-.58,1.3-.62,2.01l-.76,13.26c-.09,1.59-1.6,2.72-3.15,2.36Z"/>
  <line class="cls-1" x1="44.86" y1="69.26" x2="118.45" y2="69.26"/>
  <line class="cls-1" x1="44.86" y1="100.87" x2="94.33" y2="100.87"/>
</svg>