<?xml version="1.0" encoding="UTF-8"?>
<svg id="Layer_1" data-name="Layer 1" xmlns="http://www.w3.org/2000/svg" viewBox="0 0 125.87 129.87">
  <defs>
    <style>
      .cls-1 {
        fill: none;
        stroke: #000;
        stroke-miterlimit: 10;
        stroke-width: 2px;
      }
    </style>
  </defs>
  <path class="cls-1" d="M14.68,124.53h0c-3.72-2.01-10.31-8.51-12.89-20.46-2.22-10.29.85-18.52,2.1-21.44,4.55-9.09,18.72-14.72,31.82-34.55,10.75-16.27,15.45-29.32,18.23-33.74,7.5-11.3,27.36-19.34,44.04-7.54,14.24,10.08,17.62,29.79,7.54,44.03-5.44,7.39-17.12,15.57-27.53,28.15-11.36,13.73-13.14,29.9-19.63,38.47-3.39,4.48-6.68,8.83-22.36,10.78-9.61,1.19-14.81,1.02-21.32-3.72Z"/>
  <path class="cls-1" d="M83.4,18.72c-3.55,1.04-8.96,3.9-15.97,11.9-8.8,10.03-14.83,23.55-22.01,33.8-4.52,6.46-10.66,12.37-21.34,17.37"/>
  <path class="cls-1" d="M96.86,28.88c-2.99,3.68-3.55,11.01-12.27,21.36-5.96,7.08-16.56,15.08-22.05,21.8-4.7,5.75-10.28,14.72-15.68,23.09-3.98,6.17-13.64,14.2-18.64,16.25"/>
  <line class="cls-1" x1="62.55" y1="22.74" x2="69.63" y2="28.22"/>
  <line class="cls-1" x1="66.09" y1="85.92" x2="58.03" y2="78.08"/>
  <line class="cls-1" x1="93.14" y1="50.25" x2="80.87" y2="42.06"/>
  <path class="cls-1" d="M47.77,42.06c5.63,4.48,13.69,7.57,19.32,12.05,6.7,5.33,10.99,12.04,17.69,17.36"/>
  <line class="cls-1" x1="60.44" y1="114.2" x2="51.64" y2="107.06"/>
  <line class="cls-1" x1="14.36" y1="90.7" x2="24.08" y2="100.7"/>
  <ellipse class="cls-1" cx="102.87" cy="100.7" rx="26.25" ry="19.99" transform="translate(-37.43 132.92) rotate(-57.32)"/>
  <path class="cls-1" d="M88.7,122.79c2.26-6.19,5.03-9.53,8.17-14.14,2.54-3.74,6-7.95,8.86-10.91"/>
</svg>