<?xml version="1.0" encoding="UTF-8"?><svg id="uuid-77e6972c-df4b-46dd-a368-2c4b3a868768" xmlns="http://www.w3.org/2000/svg" viewBox="0 0 200 201"><path d="M200,100C200,44.772,155.228,0,100,0S0,44.772,0,100c0,29.435,12.72,55.898,32.96,74.198,8.102-19.186,35.037-33.283,67.04-33.283s58.938,14.097,67.04,33.283c20.241-18.299,32.96-44.762,32.96-74.198Z" style="fill:#bcbec0;"/><path d="M100,139.227c-32.002,0-58.938,14.739-67.04,34.797,17.736,16.764,41.247,26.976,67.04,26.976s49.303-10.212,67.04-26.976c-8.102-20.058-35.037-34.797-67.04-34.797Z" style="fill:#a7a9ac;"/><circle cx="100" cy="82.038" r="38.722" style="fill:#a7a9ac;"/></svg>