<?xml version="1.0" encoding="UTF-8"?>
<svg id="Layer_1" data-name="Layer 1" xmlns="http://www.w3.org/2000/svg" viewBox="0 0 126.17 117.56">
  <defs>
    <style>
      .cls-1 {
        fill: none;
        stroke: #000;
        stroke-miterlimit: 10;
        stroke-width: 2px;
      }
    </style>
  </defs>
  <path class="cls-1" d="M15.13,45.26c-.09.05-.27-.05-.35,0C-1.08,54.61-2.89,82.8,7.51,97.78c38.71,55.75,147.82-25.54,109.71-76.66C102.09.84,70.56-8.29,55.51,13.86c-4.88,7.19-6.8,13.22-14,19.45s-15.19,6.94-23.02,10.37c-.11.05-.22.1-.34.15-1,.45-2.07.9-3.01,1.44Z"/>
  <path class="cls-1" d="M14.78,45.26c1.38,10.89,20.92,9.97,36.92-3.47,14.04-11.8,15.66-28.09,6.66-31.64"/>
</svg>