<?xml version="1.0" encoding="UTF-8"?>
<svg id="Layer_1" data-name="Layer 1" xmlns="http://www.w3.org/2000/svg" viewBox="0 0 141.53 138.09">
  <defs>
    <style>
      .cls-1 {
        fill: none;
        stroke: #000;
        stroke-miterlimit: 10;
        stroke-width: 2px;
      }
    </style>
  </defs>
  <path class="cls-1" d="M129.02,30.29c-3.73-1.13-8.07-1.76-12.48-.99-1.29.23-2.54.57-3.73,1,.69-1.78,1.2-3.68,1.44-5.67.35-2.88.11-5.7-.47-8.32.03-.03.06-.06.09-.09,8.47-8.83,22.8-8.84,22.8-8.84,0,0,.59,14.07-7.65,22.91Z"/>
  <path class="cls-1" d="M112.81,30.3c-2.37.84-4.54,2.02-6.46,3.34"/>
  <path class="cls-1" d="M106.35,33.64c1.92-1.32,4.09-2.5,6.46-3.34.69-1.78,1.2-3.68,1.44-5.67.35-2.88.11-5.7-.47-8.32"/>
  <path class="cls-1" d="M112.81,30.3c-2.37.84-4.54,2.02-6.46,3.34"/>
  <path class="cls-1" d="M106.35,33.64c-3.59,2.43-6.33,5.32-7.99,7.3-.07-.12-.14-.25-.21-.38"/>
  <path class="cls-1" d="M93.82,21.46c1.8-11.8,12.85-20.08,12.85-20.08,0,0,5.27,6.47,7.11,14.93"/>
  <path class="cls-1" d="M98.36,40.94c1.66-1.98,4.4-4.87,7.99-7.3"/>
  <path class="cls-1" d="M99.02,44.91c-.68-.39-1.23-.73-1.64-.99"/>
  <path class="cls-1" d="M98.36,40.94c-.12.14-.23.27-.34.4"/>
  <path class="cls-1" d="M129.02,30.29c6.49,1.94,11.14,5.35,11.14,5.35,0,0-7.31,10.91-18.51,13.7"/>
  <path class="cls-1" d="M112.81,30.3c1.19-.43,2.44-.77,3.73-1,4.41-.77,8.75-.14,12.48.99"/>
  <path class="cls-1" d="M112.81,30.3c-2.37.84-4.54,2.02-6.46,3.34"/>
  <path class="cls-1" d="M82.44,56.11c.47-.54,1.01-1.15,1.62-1.8.03-.03.06-.07.1-.1.21-.22.44-.46.68-.69,2.12-2.13,4.95-4.51,8.34-6.32.66-.36,1.34-.69,2.04-.98.52-.24,1.05-.45,1.59-.64.21-.54.4-1.09.57-1.66"/>
  <path class="cls-1" d="M77.82,36.72c1.81-11.79,12.84-20.06,12.84-20.06,0,0,1.49,1.82,3.16,4.8"/>
  <path class="cls-1" d="M98.15,40.56c-.03.26-.07.52-.13.78"/>
  <path class="cls-1" d="M98.02,41.34c-.16.88-.38,1.75-.64,2.58"/>
  <path class="cls-1" d="M98.15,40.56c.04-.21.07-.43.1-.65.88-7.22-1.97-14.08-4.43-18.45"/>
  <path class="cls-1" d="M121.65,49.34c1.59.91,2.5,1.58,2.5,1.58,0,0-7.45,11.14-18.85,13.78"/>
  <path class="cls-1" d="M83.63,60.54c-.77-.43-1.42-.82-1.92-1.14"/>
  <path class="cls-1" d="M99.02,44.91c-.76.18-1.49.41-2.21.67"/>
  <path class="cls-1" d="M96.81,45.58c-.54.19-1.07.4-1.59.64-.7.29-1.38.62-2.04.98-3.39,1.81-6.22,4.19-8.34,6.32-.24.23-.47.46-.68.69-.04.03-.07.07-.1.1-.61.65-1.16,1.26-1.62,1.8"/>
  <path class="cls-1" d="M99.02,44.91c.5-.13,1.01-.24,1.52-.33,8.66-1.52,17.07,2.42,21.11,4.76"/>
  <path class="cls-1" d="M61.92,53.74c0-.2.04-.41.06-.61,1.48-12.15,12.95-20.75,12.95-20.75,0,0,1.33,1.64,2.89,4.34"/>
  <path class="cls-1" d="M66.27,71.32c.12.21.23.42.35.62,2.56-3.05,7.67-8.23,14.45-10.64.24-.62.46-1.25.64-1.9"/>
  <path class="cls-1" d="M82.35,56.22s.05-.06.09-.1h0c.03-.17.05-.33.07-.49.91-7.49-2.18-14.57-4.69-18.91"/>
  <path class="cls-1" d="M82.35,56.22s.05-.06.09-.1c-.16,1.13-.41,2.22-.73,3.28"/>
  <path class="cls-1" d="M83.63,60.54c.39-.09.78-.17,1.17-.24,8.25-1.45,16.26,2.05,20.5,4.4"/>
  <path class="cls-1" d="M66.62,71.94c-.18.21-.34.41-.5.59"/>
  <path class="cls-1" d="M105.3,64.7c1.96,1.09,3.12,1.94,3.12,1.94,0,0-7.98,11.91-20.03,14.03-.01,0-.03,0-.04.01"/>
  <path class="cls-1" d="M68.54,76.61c-1.26-.67-2.25-1.28-2.9-1.7"/>
  <path class="cls-1" d="M83.63,60.54c-.88.2-1.73.46-2.56.76"/>
  <path class="cls-1" d="M66.62,71.94c2.56-3.05,7.67-8.23,14.45-10.64"/>
  <path class="cls-1" d="M51.95,86.43c2.83-3,7.27-6.83,12.82-8.81.34-.87.63-1.78.87-2.71"/>
  <path class="cls-1" d="M46.32,66.2c2.85-10.4,12.31-17.49,12.31-17.49,0,0,1.56,1.92,3.29,5.03"/>
  <path class="cls-1" d="M66.12,72.53c.04-.19.07-.38.09-.58.03-.21.05-.42.06-.63"/>
  <path class="cls-1" d="M66.12,72.53c-.11.81-.27,1.61-.48,2.38"/>
  <path class="cls-1" d="M61.92,53.74c2.35,4.24,4.99,10.72,4.35,17.58"/>
  <path class="cls-1" d="M88.35,80.68c2.36,1.25,3.77,2.29,3.77,2.29,0,0-6.52,9.72-16.67,13.15"/>
  <path class="cls-1" d="M50.85,92.16c-.09-.05-.18-.1-.26-.14"/>
  <path class="cls-1" d="M64.77,77.62c1.19-.43,2.44-.77,3.73-1,0,0,.03,0,.04-.01"/>
  <path class="cls-1" d="M68.54,76.61c7.83-1.36,15.44,1.74,19.81,4.07"/>
  <path class="cls-1" d="M51.95,86.43c-.01.06-.01.13-.02.19-.23,1.89-.7,3.7-1.34,5.4-.03.09-.07.18-.1.27-6.77,2.41-11.88,7.59-14.45,10.64-2.51-4.35-5.54-11.38-4.64-18.81,1.48-12.15,12.95-20.74,12.95-20.74,0,0,.84,1.04,1.97,2.82,2.56,4.03,6.58,11.87,5.63,20.23Z"/>
  <path class="cls-1" d="M77.84,97.64s-7.98,11.9-20.03,14.02c-12.06,2.12-23.62-6.34-23.62-6.34,0,0,.64-.96,1.85-2.39,2.57-3.05,7.68-8.23,14.45-10.64.12-.05.24-.09.36-.13,1.08-.37,2.21-.67,3.37-.87,8.75-1.54,17.23,2.5,21.23,4.83,1.52.88,2.39,1.52,2.39,1.52Z"/>
  <line class="cls-1" x1="35.69" y1="103.71" x2=".69" y2="137.37"/>
</svg>