<?xml version="1.0" encoding="UTF-8"?><svg id="uuid-82886bd4-afe2-41a6-8529-5d6ebdaa72a6" xmlns="http://www.w3.org/2000/svg" xmlns:xlink="http://www.w3.org/1999/xlink" viewBox="0 0 988.967 158.161"><defs><clipPath id="uuid-8fedcda7-40ca-42cb-8ff7-cf7d79a7b202"><polygon points="371.967 60.412 317.557 47.872 288.817 0 260.077 47.872 205.667 60.412 242.315 102.539 237.427 158.161 288.817 136.324 340.206 158.161 335.319 102.539 371.967 60.412" style="fill:none;"/></clipPath></defs><polygon points="83.15 0 111.89 47.872 166.3 60.412 129.652 102.539 134.54 158.161 83.15 136.324 31.761 158.161 36.648 102.539 0 60.412 54.41 47.872 83.15 0" style="fill:#faaf3c;"/><polygon points="905.817 0 934.557 47.872 988.967 60.412 952.319 102.539 957.206 158.161 905.817 136.324 854.427 158.161 859.315 102.539 822.667 60.412 877.077 47.872 905.817 0" style="fill:#818181;"/><polygon points="700.15 0 728.89 47.872 783.3 60.412 746.652 102.539 751.54 158.161 700.15 136.324 648.761 158.161 653.648 102.539 617 60.412 671.41 47.872 700.15 0" style="fill:#818181;"/><g style="clip-path:url(#uuid-8fedcda7-40ca-42cb-8ff7-cf7d79a7b202);"><polyline points="288.817 136.324 237.427 158.161 242.315 102.539 205.667 60.412 260.077 47.872 288.817 0" style="fill:#faaf3a;"/><polyline points="288.817 136.324 340.206 158.161 335.319 102.539 371.967 60.412 317.557 47.872 288.817 0" style="fill:#818181;"/></g><polygon points="494.483 0 523.223 47.872 577.634 60.412 540.985 102.539 545.873 158.161 494.483 136.324 443.094 158.161 447.981 102.539 411.333 60.412 465.744 47.872 494.483 0" style="fill:#818181;"/></svg>