<?xml version="1.0" encoding="UTF-8"?><svg id="uuid-754c2f61-db5a-4771-b922-ea0e3138be5b" xmlns="http://www.w3.org/2000/svg" viewBox="0 0 990.641 158.161"><polygon points="83.15 0 111.89 47.872 166.3 60.412 129.652 102.539 134.54 158.161 83.15 136.324 31.761 158.161 36.648 102.539 0 60.412 54.41 47.872 83.15 0" style="fill:#fbb03c;"/><polygon points="289.235 0 317.975 47.872 372.385 60.412 335.737 102.539 340.625 158.161 289.235 136.324 237.846 158.161 242.733 102.539 206.085 60.412 260.496 47.872 289.235 0" style="fill:#fbb03c;"/><polygon points="495.321 0 524.06 47.872 578.471 60.412 541.822 102.539 546.71 158.161 495.321 136.324 443.931 158.161 448.819 102.539 412.17 60.412 466.581 47.872 495.321 0" style="fill:gray;"/><polygon points="701.406 0 730.145 47.872 784.556 60.412 747.908 102.539 752.795 158.161 701.406 136.324 650.016 158.161 654.904 102.539 618.256 60.412 672.666 47.872 701.406 0" style="fill:gray;"/><polygon points="907.491 0 936.231 47.872 990.641 60.412 953.993 102.539 958.88 158.161 907.491 136.324 856.101 158.161 860.989 102.539 824.341 60.412 878.751 47.872 907.491 0" style="fill:gray;"/></svg>